{"title":"ExGirlfriends.Donna.Bell.Beats.Of.Passion.XXX.720p.MP4.XXXmegath","uid":10622559,"size":1108532983,"categoryP":"porn","categoryS":"movies","magnet":"?xt=urn:btih:fc5eb5fea04ae4e4fc3c0fce44d8e6be93b16995&amp;dn=ExGirlfriends.Donna.Bell.Beats.Of.Passion.XXX.720p.MP4.XXXmegath&amp;tr=udp%3A%2F%2Ftracker.openbittorrent.com%3A80&amp;tr=udp%3A%2F%2Fopen.demonii.com%3A1337&amp;tr=udp%3A%2F%2Ftracker.coppersurfer.tk%3A6969&amp;tr=udp%3A%2F%2Fexodus.desync.com%3A6969","seeders":1,"leechers":2,"uploader":"XXXmegathor","files":1,"time":1406184657,"description":"ExGirlfriends.Donna.Bell.Beats.Of.Passion.XXX.720p.MP4.XXXmegathor\n\nSCREENIES &lt;a href=&quot;\nhttp://xxxtrapics.com/image/Rf&quot; rel=&quot;nofollow&quot; target=&quot;_NEW&quot;&gt;\nhttp://xxxtrapics.com/image/Rf&lt;/a&gt;\n\n\nDuration : 31mn 58s\nBit rate mode : Variable\nBit rate : 4 492 Kbps\nWidth : 1 280 pixels\nHeight : 720 pixels\nDisplay aspect ratio : 16:9\nFrame rate mode : Constant\nFrame rate : 25.000 fps\nStandard : PAL\nColor space : YUV\nChroma subsampling : 4:2:0\nBit depth : 8 bits\nScan type : Progressive\nBits/(Pixel*Frame) : 0.195\nStream size : 1.00 GiB (97%)\nLanguage : English\nEncoded date : UTC 2014-06-25 20:26:43\nTagged date : UTC 2014-06-25 20:26:43\nColor primaries : BT.709-5, BT.1361, IEC 61966-2-4, SMPTE RP177\nTransfer characteristics : BT.709-5, BT.1361\nMatrix coefficients : BT.709-5, BT.1361, IEC 61966-2-4 709, SMPTE RP177\n\nAudio\nID : 2\nFormat : AAC\nFormat/Info : Advanced Audio Codec\nFormat profile : LC\nCodec ID : 40\nDuration : 31mn 58s\nBit rate mode : Variable\nBit rate : 125 Kbps\nMaximum bit rate : 220 Kbps\nChannel(s) : 2 channels\nChannel positions : Front: L R\nSampling rate : 48.0 KHz\nCompression mode : Lossy\nStream size : 28.7 MiB (3%)\nLanguage : English\nEncoded date : UTC 2014-06-25 20:26:43\nTagged date : UTC 2014-06-25 20:26:43\n\n\n","torrent":{"xt":"urn:btih:fc5eb5fea04ae4e4fc3c0fce44d8e6be93b16995","amp;dn":"ExGirlfriends.Donna.Bell.Beats.Of.Passion.XXX.720p.MP4.XXXmegath","amp;tr":["udp%3A%2F%2Ftracker.openbittorrent.com%3A80","udp%3A%2F%2Fopen.demonii.com%3A1337","udp%3A%2F%2Ftracker.coppersurfer.tk%3A6969","udp%3A%2F%2Fexodus.desync.com%3A6969"],"infoHash":"fc5eb5fea04ae4e4fc3c0fce44d8e6be93b16995","infoHashBuffer":{"type":"Buffer","data":[252,94,181,254,160,74,228,228,252,60,15,206,68,216,230,190,147,177,105,149]},"announce":[],"urlList":[]}}